<svg width="564" height="293" viewBox="0 0 564 293" fill="none" xmlns="http://www.w3.org/2000/svg">
<rect width="564" height="293" fill="#320B4B"/>
<path d="M44.0723 228.781L48.7207 240.383L53.3691 228.781H55.8008V243H53.9258V237.463L54.1016 231.486L49.4336 243H47.998L43.3398 231.516L43.5254 237.463V243H41.6504V228.781H44.0723ZM63.9355 234.055C63.6621 234.009 63.3659 233.986 63.0469 233.986C61.862 233.986 61.0579 234.491 60.6348 235.5V243H58.8281V232.434H60.5859L60.6152 233.654C61.2077 232.71 62.0475 232.238 63.1348 232.238C63.4863 232.238 63.7533 232.284 63.9355 232.375V234.055ZM64.4336 242.053C64.4336 241.74 64.5247 241.48 64.707 241.271C64.8958 241.063 65.1758 240.959 65.5469 240.959C65.918 240.959 66.1979 241.063 66.3867 241.271C66.582 241.48 66.6797 241.74 66.6797 242.053C66.6797 242.352 66.582 242.603 66.3867 242.805C66.1979 243.007 65.918 243.107 65.5469 243.107C65.1758 243.107 64.8958 243.007 64.707 242.805C64.5247 242.603 64.4336 242.352 64.4336 242.053ZM80.8691 228.781H82.7539V238.85C82.7539 240.21 82.3438 241.275 81.5234 242.043C80.7096 242.811 79.6224 243.195 78.2617 243.195C76.849 243.195 75.7487 242.834 74.9609 242.111C74.1732 241.389 73.7793 240.376 73.7793 239.074H75.6543C75.6543 239.888 75.8757 240.523 76.3184 240.979C76.7676 241.434 77.4154 241.662 78.2617 241.662C79.0365 241.662 79.6615 241.418 80.1367 240.93C80.6185 240.441 80.8626 239.758 80.8691 238.879V228.781ZM85.1855 237.619C85.1855 236.584 85.3874 235.653 85.791 234.826C86.2012 233.999 86.7676 233.361 87.4902 232.912C88.2194 232.463 89.0495 232.238 89.9805 232.238C91.4193 232.238 92.5814 232.736 93.4668 233.732C94.3587 234.729 94.8047 236.053 94.8047 237.707V237.834C94.8047 238.863 94.6061 239.787 94.209 240.607C93.8184 241.421 93.2552 242.056 92.5195 242.512C91.7904 242.967 90.9505 243.195 90 243.195C88.5677 243.195 87.4056 242.697 86.5137 241.701C85.6283 240.705 85.1855 239.387 85.1855 237.746V237.619ZM87.002 237.834C87.002 239.006 87.2721 239.947 87.8125 240.656C88.3594 241.366 89.0885 241.721 90 241.721C90.918 241.721 91.6471 241.363 92.1875 240.646C92.7279 239.924 92.998 238.915 92.998 237.619C92.998 236.46 92.7214 235.523 92.168 234.807C91.6211 234.084 90.8919 233.723 89.9805 233.723C89.0885 233.723 88.3691 234.077 87.8223 234.787C87.2754 235.497 87.002 236.512 87.002 237.834ZM98.877 233.713C99.6777 232.73 100.719 232.238 102.002 232.238C104.235 232.238 105.361 233.498 105.381 236.018V243H103.574V236.008C103.568 235.246 103.392 234.683 103.047 234.318C102.708 233.954 102.178 233.771 101.455 233.771C100.869 233.771 100.355 233.928 99.9121 234.24C99.4694 234.553 99.1243 234.963 98.877 235.471V243H97.0703V228H98.877V233.713ZM109.795 232.434L109.854 233.762C110.661 232.746 111.715 232.238 113.018 232.238C115.251 232.238 116.377 233.498 116.396 236.018V243H114.59V236.008C114.583 235.246 114.408 234.683 114.062 234.318C113.724 233.954 113.193 233.771 112.471 233.771C111.885 233.771 111.37 233.928 110.928 234.24C110.485 234.553 110.14 234.963 109.893 235.471V243H108.086V232.434H109.795ZM124.365 243V228.781H128.379C129.616 228.781 130.71 229.055 131.66 229.602C132.611 230.148 133.343 230.926 133.857 231.936C134.378 232.945 134.642 234.104 134.648 235.412V236.32C134.648 237.661 134.388 238.837 133.867 239.846C133.353 240.855 132.614 241.63 131.65 242.17C130.693 242.71 129.577 242.987 128.301 243H124.365ZM126.24 230.324V241.467H128.213C129.658 241.467 130.781 241.018 131.582 240.119C132.389 239.221 132.793 237.941 132.793 236.281V235.451C132.793 233.837 132.412 232.583 131.65 231.691C130.895 230.793 129.821 230.337 128.428 230.324H126.24ZM136.729 237.619C136.729 236.584 136.93 235.653 137.334 234.826C137.744 233.999 138.311 233.361 139.033 232.912C139.762 232.463 140.592 232.238 141.523 232.238C142.962 232.238 144.124 232.736 145.01 233.732C145.902 234.729 146.348 236.053 146.348 237.707V237.834C146.348 238.863 146.149 239.787 145.752 240.607C145.361 241.421 144.798 242.056 144.062 242.512C143.333 242.967 142.493 243.195 141.543 243.195C140.111 243.195 138.949 242.697 138.057 241.701C137.171 240.705 136.729 239.387 136.729 237.746V237.619ZM138.545 237.834C138.545 239.006 138.815 239.947 139.355 240.656C139.902 241.366 140.632 241.721 141.543 241.721C142.461 241.721 143.19 241.363 143.73 240.646C144.271 239.924 144.541 238.915 144.541 237.619C144.541 236.46 144.264 235.523 143.711 234.807C143.164 234.084 142.435 233.723 141.523 233.723C140.632 233.723 139.912 234.077 139.365 234.787C138.818 235.497 138.545 236.512 138.545 237.834ZM152.998 243.195C151.566 243.195 150.4 242.727 149.502 241.789C148.604 240.845 148.154 239.585 148.154 238.01V237.678C148.154 236.63 148.353 235.695 148.75 234.875C149.154 234.048 149.714 233.404 150.43 232.941C151.152 232.473 151.934 232.238 152.773 232.238C154.147 232.238 155.215 232.691 155.977 233.596C156.738 234.501 157.119 235.796 157.119 237.482V238.234H149.961C149.987 239.276 150.29 240.119 150.869 240.764C151.455 241.402 152.197 241.721 153.096 241.721C153.734 241.721 154.274 241.59 154.717 241.33C155.16 241.07 155.547 240.725 155.879 240.295L156.982 241.154C156.097 242.515 154.769 243.195 152.998 243.195ZM152.773 233.723C152.044 233.723 151.432 233.99 150.938 234.523C150.443 235.051 150.137 235.793 150.02 236.75H155.312V236.613C155.26 235.695 155.013 234.986 154.57 234.484C154.128 233.977 153.529 233.723 152.773 233.723Z" fill="#E5E5E5"/>
<path d="M49.082 209.616C48.9502 210.744 48.5327 211.616 47.8296 212.231C47.1313 212.841 46.2012 213.146 45.0391 213.146C43.7793 213.146 42.7686 212.695 42.0068 211.792C41.25 210.888 40.8716 209.68 40.8716 208.166V207.141C40.8716 206.149 41.0474 205.278 41.3989 204.526C41.7554 203.774 42.2583 203.198 42.9077 202.797C43.5571 202.392 44.3091 202.189 45.1636 202.189C46.2964 202.189 47.2046 202.507 47.8882 203.142C48.5718 203.771 48.9697 204.646 49.082 205.764H47.6685C47.5464 204.914 47.2803 204.299 46.8701 203.918C46.4648 203.537 45.896 203.347 45.1636 203.347C44.2651 203.347 43.5596 203.679 43.0469 204.343C42.5391 205.007 42.2852 205.952 42.2852 207.177V208.21C42.2852 209.367 42.5269 210.288 43.0103 210.971C43.4937 211.655 44.1699 211.997 45.0391 211.997C45.8203 211.997 46.4185 211.821 46.8335 211.469C47.2534 211.113 47.5317 210.495 47.6685 209.616H49.082ZM55.6885 213C55.6104 212.844 55.5469 212.565 55.498 212.165C54.8682 212.819 54.1162 213.146 53.2422 213.146C52.4609 213.146 51.8188 212.927 51.3159 212.487C50.8179 212.043 50.5688 211.481 50.5688 210.803C50.5688 209.978 50.8813 209.338 51.5063 208.884C52.1362 208.425 53.02 208.195 54.1577 208.195H55.4761V207.573C55.4761 207.099 55.3345 206.723 55.0513 206.445C54.7681 206.162 54.3506 206.02 53.7988 206.02C53.3154 206.02 52.9102 206.142 52.583 206.386C52.2559 206.63 52.0923 206.926 52.0923 207.272H50.73C50.73 206.877 50.8691 206.496 51.1475 206.13C51.4307 205.759 51.8115 205.466 52.29 205.251C52.7734 205.036 53.3032 204.929 53.8794 204.929C54.7925 204.929 55.5078 205.158 56.0254 205.617C56.543 206.071 56.8115 206.699 56.8311 207.5V211.147C56.8311 211.875 56.9238 212.453 57.1094 212.883V213H55.6885ZM53.4399 211.967C53.8647 211.967 54.2676 211.857 54.6484 211.638C55.0293 211.418 55.3052 211.132 55.4761 210.781V209.155H54.4141C52.7539 209.155 51.9238 209.641 51.9238 210.612C51.9238 211.037 52.0654 211.369 52.3486 211.608C52.6318 211.848 52.9956 211.967 53.4399 211.967ZM62.7856 206.291C62.5806 206.257 62.3584 206.24 62.1191 206.24C61.2305 206.24 60.6274 206.618 60.3101 207.375V213H58.9551V205.075H60.2734L60.2954 205.991C60.7397 205.283 61.3696 204.929 62.1851 204.929C62.4487 204.929 62.6489 204.963 62.7856 205.031V206.291ZM63.562 208.972C63.562 207.756 63.8501 206.779 64.4263 206.042C65.0024 205.3 65.7568 204.929 66.6895 204.929C67.6172 204.929 68.3521 205.246 68.894 205.881V201.75H70.249V213H69.0039L68.938 212.15C68.396 212.814 67.6416 213.146 66.6748 213.146C65.7568 213.146 65.0073 212.771 64.4263 212.019C63.8501 211.267 63.562 210.285 63.562 209.074V208.972ZM64.917 209.125C64.917 210.024 65.1025 210.727 65.4736 211.235C65.8447 211.743 66.3574 211.997 67.0117 211.997C67.8711 211.997 68.4985 211.611 68.894 210.839V207.199C68.4888 206.452 67.8662 206.079 67.0264 206.079C66.3623 206.079 65.8447 206.335 65.4736 206.848C65.1025 207.36 64.917 208.12 64.917 209.125ZM77.4341 206.035C78.0347 205.297 78.8159 204.929 79.7778 204.929C81.4526 204.929 82.2974 205.874 82.312 207.763V213H80.957V207.756C80.9521 207.185 80.8203 206.762 80.5615 206.489C80.3076 206.215 79.9097 206.079 79.3677 206.079C78.9282 206.079 78.5425 206.196 78.2104 206.43C77.8784 206.665 77.6196 206.972 77.4341 207.353V213H76.0791V201.75H77.4341V206.035ZM83.9819 208.964C83.9819 208.188 84.1333 207.49 84.436 206.87C84.7437 206.25 85.1685 205.771 85.7104 205.434C86.2573 205.097 86.8799 204.929 87.5781 204.929C88.6572 204.929 89.5288 205.302 90.1929 206.049C90.8618 206.796 91.1963 207.79 91.1963 209.03V209.125C91.1963 209.897 91.0474 210.59 90.7495 211.206C90.4565 211.816 90.0342 212.292 89.4824 212.634C88.9355 212.976 88.3057 213.146 87.5928 213.146C86.5186 213.146 85.647 212.773 84.978 212.026C84.314 211.279 83.9819 210.29 83.9819 209.06V208.964ZM85.3442 209.125C85.3442 210.004 85.5469 210.71 85.9521 211.242C86.3623 211.774 86.9092 212.041 87.5928 212.041C88.2812 212.041 88.8281 211.772 89.2334 211.235C89.6387 210.693 89.8413 209.936 89.8413 208.964C89.8413 208.095 89.6338 207.392 89.2188 206.855C88.8086 206.313 88.2617 206.042 87.5781 206.042C86.9092 206.042 86.3696 206.308 85.9595 206.84C85.5493 207.373 85.3442 208.134 85.3442 209.125ZM94.3677 213H93.0127V201.75H94.3677V213ZM96.2134 208.972C96.2134 207.756 96.5015 206.779 97.0776 206.042C97.6538 205.3 98.4082 204.929 99.3408 204.929C100.269 204.929 101.003 205.246 101.545 205.881V201.75H102.9V213H101.655L101.589 212.15C101.047 212.814 100.293 213.146 99.3262 213.146C98.4082 213.146 97.6587 212.771 97.0776 212.019C96.5015 211.267 96.2134 210.285 96.2134 209.074V208.972ZM97.5684 209.125C97.5684 210.024 97.7539 210.727 98.125 211.235C98.4961 211.743 99.0088 211.997 99.6631 211.997C100.522 211.997 101.15 211.611 101.545 210.839V207.199C101.14 206.452 100.518 206.079 99.6777 206.079C99.0137 206.079 98.4961 206.335 98.125 206.848C97.7539 207.36 97.5684 208.12 97.5684 209.125ZM108.298 213.146C107.224 213.146 106.35 212.795 105.676 212.092C105.002 211.384 104.666 210.439 104.666 209.257V209.008C104.666 208.222 104.814 207.521 105.112 206.906C105.415 206.286 105.835 205.803 106.372 205.456C106.914 205.104 107.5 204.929 108.13 204.929C109.16 204.929 109.961 205.268 110.532 205.947C111.104 206.625 111.389 207.597 111.389 208.862V209.426H106.021C106.04 210.207 106.267 210.839 106.702 211.323C107.141 211.801 107.698 212.041 108.372 212.041C108.85 212.041 109.255 211.943 109.587 211.748C109.919 211.552 110.21 211.293 110.459 210.971L111.287 211.616C110.623 212.636 109.626 213.146 108.298 213.146ZM108.13 206.042C107.583 206.042 107.124 206.242 106.753 206.643C106.382 207.038 106.152 207.595 106.064 208.312H110.034V208.21C109.995 207.521 109.81 206.989 109.478 206.613C109.146 206.232 108.696 206.042 108.13 206.042ZM116.794 206.291C116.589 206.257 116.367 206.24 116.128 206.24C115.239 206.24 114.636 206.618 114.319 207.375V213H112.964V205.075H114.282L114.304 205.991C114.749 205.283 115.378 204.929 116.194 204.929C116.458 204.929 116.658 204.963 116.794 205.031V206.291Z" fill="#E5E5E5"/>
<path d="M64.7344 135.961L57.6562 133.852L58.7344 130.312L65.8125 132.938L65.6016 124.875H69.1875L68.9531 133.055L75.9141 130.477L76.9922 134.039L69.7969 136.172L74.4375 142.523L71.5312 144.727L67.1719 137.977L62.9531 144.562L60.0234 142.43L64.7344 135.961ZM85.4062 135.961L78.3281 133.852L79.4062 130.312L86.4844 132.938L86.2734 124.875H89.8594L89.625 133.055L96.5859 130.477L97.6641 134.039L90.4688 136.172L95.1094 142.523L92.2031 144.727L87.8438 137.977L83.625 144.562L80.6953 142.43L85.4062 135.961ZM106.078 135.961L99 133.852L100.078 130.312L107.156 132.938L106.945 124.875H110.531L110.297 133.055L117.258 130.477L118.336 134.039L111.141 136.172L115.781 142.523L112.875 144.727L108.516 137.977L104.297 144.562L101.367 142.43L106.078 135.961ZM126.75 135.961L119.672 133.852L120.75 130.312L127.828 132.938L127.617 124.875H131.203L130.969 133.055L137.93 130.477L139.008 134.039L131.812 136.172L136.453 142.523L133.547 144.727L129.188 137.977L124.969 144.562L122.039 142.43L126.75 135.961ZM171.234 135.961L164.156 133.852L165.234 130.312L172.312 132.938L172.102 124.875H175.688L175.453 133.055L182.414 130.477L183.492 134.039L176.297 136.172L180.938 142.523L178.031 144.727L173.672 137.977L169.453 144.562L166.523 142.43L171.234 135.961ZM191.906 135.961L184.828 133.852L185.906 130.312L192.984 132.938L192.773 124.875H196.359L196.125 133.055L203.086 130.477L204.164 134.039L196.969 136.172L201.609 142.523L198.703 144.727L194.344 137.977L190.125 144.562L187.195 142.43L191.906 135.961ZM212.578 135.961L205.5 133.852L206.578 130.312L213.656 132.938L213.445 124.875H217.031L216.797 133.055L223.758 130.477L224.836 134.039L217.641 136.172L222.281 142.523L219.375 144.727L215.016 137.977L210.797 144.562L207.867 142.43L212.578 135.961ZM233.25 135.961L226.172 133.852L227.25 130.312L234.328 132.938L234.117 124.875H237.703L237.469 133.055L244.43 130.477L245.508 134.039L238.312 136.172L242.953 142.523L240.047 144.727L235.688 137.977L231.469 144.562L228.539 142.43L233.25 135.961ZM277.734 135.961L270.656 133.852L271.734 130.312L278.812 132.938L278.602 124.875H282.188L281.953 133.055L288.914 130.477L289.992 134.039L282.797 136.172L287.438 142.523L284.531 144.727L280.172 137.977L275.953 144.562L273.023 142.43L277.734 135.961ZM298.406 135.961L291.328 133.852L292.406 130.312L299.484 132.938L299.273 124.875H302.859L302.625 133.055L309.586 130.477L310.664 134.039L303.469 136.172L308.109 142.523L305.203 144.727L300.844 137.977L296.625 144.562L293.695 142.43L298.406 135.961ZM319.078 135.961L312 133.852L313.078 130.312L320.156 132.938L319.945 124.875H323.531L323.297 133.055L330.258 130.477L331.336 134.039L324.141 136.172L328.781 142.523L325.875 144.727L321.516 137.977L317.297 144.562L314.367 142.43L319.078 135.961ZM339.75 135.961L332.672 133.852L333.75 130.312L340.828 132.938L340.617 124.875H344.203L343.969 133.055L350.93 130.477L352.008 134.039L344.812 136.172L349.453 142.523L346.547 144.727L342.188 137.977L337.969 144.562L335.039 142.43L339.75 135.961ZM395.953 144C395.047 145.078 393.961 145.945 392.695 146.602C391.445 147.258 390.07 147.586 388.57 147.586C386.602 147.586 384.883 147.102 383.414 146.133C381.961 145.164 380.836 143.805 380.039 142.055C379.242 140.289 378.844 138.344 378.844 136.219C378.844 133.938 379.273 131.883 380.133 130.055C381.008 128.227 382.242 126.828 383.836 125.859C385.43 124.891 387.289 124.406 389.414 124.406C392.789 124.406 395.445 125.672 397.383 128.203C399.336 130.719 400.312 134.156 400.312 138.516V139.781C400.312 146.422 399 151.273 396.375 154.336C393.75 157.383 389.789 158.945 384.492 159.023H383.648V155.367H384.562C388.141 155.305 390.891 154.375 392.812 152.578C394.734 150.766 395.781 147.906 395.953 144ZM389.273 144C390.727 144 392.062 143.555 393.281 142.664C394.516 141.773 395.414 140.672 395.977 139.359V137.625C395.977 134.781 395.359 132.469 394.125 130.688C392.891 128.906 391.328 128.016 389.438 128.016C387.531 128.016 386 128.75 384.844 130.219C383.688 131.672 383.109 133.594 383.109 135.984C383.109 138.312 383.664 140.234 384.773 141.75C385.898 143.25 387.398 144 389.273 144ZM427.688 144.445C427.688 149.523 426.82 153.297 425.086 155.766C423.352 158.234 420.641 159.469 416.953 159.469C413.312 159.469 410.617 158.266 408.867 155.859C407.117 153.438 406.211 149.828 406.148 145.031V139.242C406.148 134.227 407.016 130.5 408.75 128.062C410.484 125.625 413.203 124.406 416.906 124.406C420.578 124.406 423.281 125.586 425.016 127.945C426.75 130.289 427.641 133.914 427.688 138.82V144.445ZM423.352 138.516C423.352 134.844 422.836 132.172 421.805 130.5C420.773 128.812 419.141 127.969 416.906 127.969C414.688 127.969 413.07 128.805 412.055 130.477C411.039 132.148 410.516 134.719 410.484 138.188V145.125C410.484 148.812 411.016 151.539 412.078 153.305C413.156 155.055 414.781 155.93 416.953 155.93C419.094 155.93 420.68 155.102 421.711 153.445C422.758 151.789 423.305 149.18 423.352 145.617V138.516ZM447.492 159H443.133V130.102L434.391 133.312V129.375L446.812 124.711H447.492V159ZM482.555 159H460.195V155.883L472.008 142.758C473.758 140.773 474.961 139.164 475.617 137.93C476.289 136.68 476.625 135.391 476.625 134.062C476.625 132.281 476.086 130.82 475.008 129.68C473.93 128.539 472.492 127.969 470.695 127.969C468.539 127.969 466.859 128.586 465.656 129.82C464.469 131.039 463.875 132.742 463.875 134.93H459.539C459.539 131.789 460.547 129.25 462.562 127.312C464.594 125.375 467.305 124.406 470.695 124.406C473.867 124.406 476.375 125.242 478.219 126.914C480.062 128.57 480.984 130.781 480.984 133.547C480.984 136.906 478.844 140.906 474.562 145.547L465.422 155.461H482.555V159Z" fill="#E5E5E5"/>
<path d="M50.6133 64.7886C50.6133 64.0998 50.37 63.5195 49.8833 63.0479C49.4041 62.5762 48.5918 62.1494 47.4463 61.7676C45.8516 61.2809 44.6873 60.6483 43.9536 59.8696C43.2274 59.0835 42.8643 58.0877 42.8643 56.8823C42.8643 55.6545 43.2199 54.6475 43.9312 53.8613C44.6499 53.0752 45.6344 52.6073 46.8848 52.4575V49.998H48.5581V52.4688C49.8159 52.641 50.793 53.1688 51.4893 54.0522C52.193 54.9357 52.5449 56.1449 52.5449 57.6797H50.4785C50.4785 56.624 50.2277 55.7855 49.7261 55.1641C49.2244 54.5426 48.5469 54.2319 47.6934 54.2319C46.8024 54.2319 46.1211 54.464 45.6494 54.9282C45.1777 55.3849 44.9419 56.0251 44.9419 56.8486C44.9419 57.6123 45.189 58.2225 45.6831 58.6792C46.1847 59.1284 47.0046 59.5402 48.1426 59.9146C49.2881 60.2814 50.179 60.6895 50.8154 61.1387C51.4593 61.5804 51.931 62.097 52.2305 62.6885C52.5374 63.2799 52.6909 63.9725 52.6909 64.7661C52.6909 66.0314 52.3091 67.0496 51.5454 67.8208C50.7892 68.592 49.7261 69.0487 48.356 69.1909V71.3359H46.6938V69.1909C45.3013 69.0636 44.2082 68.5695 43.4146 67.7085C42.6284 66.84 42.2354 65.6646 42.2354 64.1821H44.313C44.313 65.2228 44.5863 66.0239 45.1328 66.5854C45.6794 67.147 46.4543 67.4277 47.4575 67.4277C48.4383 67.4277 49.2095 67.1919 49.771 66.7202C50.3325 66.2485 50.6133 65.6047 50.6133 64.7886ZM64 59.8135H65.561C66.5418 59.7985 67.313 59.5402 67.8745 59.0386C68.436 58.5369 68.7168 57.8594 68.7168 57.0059C68.7168 55.0892 67.7622 54.1309 65.853 54.1309C64.9546 54.1309 64.2358 54.3892 63.6968 54.9058C63.1652 55.4149 62.8994 56.0924 62.8994 56.9385H60.8218C60.8218 55.6432 61.2935 54.5688 62.2368 53.7153C63.1877 52.8543 64.3931 52.4238 65.853 52.4238C67.3953 52.4238 68.6045 52.8319 69.4805 53.6479C70.3564 54.464 70.7944 55.5983 70.7944 57.0508C70.7944 57.762 70.5623 58.4508 70.0981 59.1172C69.6414 59.7835 69.0163 60.2814 68.2227 60.6108C69.1211 60.8953 69.8136 61.367 70.3003 62.0259C70.7944 62.6847 71.0415 63.4896 71.0415 64.4404C71.0415 65.9079 70.5623 67.0721 69.604 67.9331C68.6457 68.7941 67.3991 69.2246 65.8643 69.2246C64.3294 69.2246 63.0791 68.8091 62.1133 67.978C61.1549 67.147 60.6758 66.0501 60.6758 64.6875H62.7646C62.7646 65.5485 63.0454 66.2373 63.6069 66.7539C64.1685 67.2705 64.9209 67.5288 65.8643 67.5288C66.8675 67.5288 67.6349 67.2668 68.1665 66.7427C68.6981 66.2186 68.9639 65.4661 68.9639 64.4854C68.9639 63.5345 68.6719 62.8045 68.0879 62.2954C67.5039 61.7863 66.6616 61.5243 65.561 61.5093H64V59.8135ZM74.04 72.2568L72.8608 71.4482C73.5646 70.4674 73.9315 69.4567 73.9614 68.416V66.5405H75.9941V68.1689C75.9941 68.9251 75.807 69.6813 75.4326 70.4375C75.0658 71.1937 74.6016 71.8001 74.04 72.2568ZM85.2368 69H83.1479V55.1528L78.959 56.6914V54.8047L84.9111 52.5698H85.2368V69ZM101.577 62.0259C101.577 64.4591 101.162 66.2673 100.331 67.4502C99.4995 68.6331 98.2005 69.2246 96.4336 69.2246C94.6891 69.2246 93.3976 68.6481 92.5591 67.4951C91.7205 66.3346 91.2863 64.6051 91.2563 62.3066V59.5327C91.2563 57.1294 91.6719 55.3438 92.5029 54.1758C93.334 53.0078 94.6367 52.4238 96.4111 52.4238C98.1706 52.4238 99.4658 52.9891 100.297 54.1196C101.128 55.2427 101.555 56.9797 101.577 59.3306V62.0259ZM99.4995 59.1846C99.4995 57.4251 99.2524 56.1449 98.7583 55.3438C98.2642 54.5352 97.4818 54.1309 96.4111 54.1309C95.348 54.1309 94.5731 54.5314 94.0864 55.3325C93.5998 56.1336 93.349 57.3652 93.334 59.0273V62.3516C93.334 64.1185 93.5885 65.425 94.0977 66.271C94.6143 67.1095 95.3929 67.5288 96.4336 67.5288C97.4593 67.5288 98.2192 67.132 98.7134 66.3384C99.215 65.5448 99.4771 64.2944 99.4995 62.5874V59.1846ZM114.492 62.0259C114.492 64.4591 114.077 66.2673 113.246 67.4502C112.415 68.6331 111.116 69.2246 109.349 69.2246C107.604 69.2246 106.313 68.6481 105.474 67.4951C104.636 66.3346 104.201 64.6051 104.171 62.3066V59.5327C104.171 57.1294 104.587 55.3438 105.418 54.1758C106.249 53.0078 107.552 52.4238 109.326 52.4238C111.086 52.4238 112.381 52.9891 113.212 54.1196C114.043 55.2427 114.47 56.9797 114.492 59.3306V62.0259ZM112.415 59.1846C112.415 57.4251 112.167 56.1449 111.673 55.3438C111.179 54.5352 110.397 54.1309 109.326 54.1309C108.263 54.1309 107.488 54.5314 107.001 55.3325C106.515 56.1336 106.264 57.3652 106.249 59.0273V62.3516C106.249 64.1185 106.504 65.425 107.013 66.271C107.529 67.1095 108.308 67.5288 109.349 67.5288C110.374 67.5288 111.134 67.132 111.628 66.3384C112.13 65.5448 112.392 64.2944 112.415 62.5874V59.1846Z" fill="#FBE7C6"/>
<path d="M418.717 61.5176L418.99 63.3926L419.391 61.7031L422.203 51.7812H423.785L426.529 61.7031L426.92 63.4219L427.223 61.5078L429.43 51.7812H431.314L427.867 66H426.158L423.229 55.6387L423.004 54.5547L422.779 55.6387L419.742 66H418.033L414.596 51.7812H416.471L418.717 61.5176ZM435.084 66H433.277V55.4336H435.084V66ZM433.131 52.6309C433.131 52.3379 433.219 52.0905 433.395 51.8887C433.577 51.6868 433.844 51.5859 434.195 51.5859C434.547 51.5859 434.814 51.6868 434.996 51.8887C435.178 52.0905 435.27 52.3379 435.27 52.6309C435.27 52.9238 435.178 53.168 434.996 53.3633C434.814 53.5586 434.547 53.6562 434.195 53.6562C433.844 53.6562 433.577 53.5586 433.395 53.3633C433.219 53.168 433.131 52.9238 433.131 52.6309ZM439.947 66H438.141V55.4336H439.947V66ZM437.994 52.6309C437.994 52.3379 438.082 52.0905 438.258 51.8887C438.44 51.6868 438.707 51.5859 439.059 51.5859C439.41 51.5859 439.677 51.6868 439.859 51.8887C440.042 52.0905 440.133 52.3379 440.133 52.6309C440.133 52.9238 440.042 53.168 439.859 53.3633C439.677 53.5586 439.41 53.6562 439.059 53.6562C438.707 53.6562 438.44 53.5586 438.258 53.3633C438.082 53.168 437.994 52.9238 437.994 52.6309ZM444.557 55.4336L444.615 56.7617C445.423 55.7461 446.477 55.2383 447.779 55.2383C450.012 55.2383 451.139 56.498 451.158 59.0176V66H449.352V59.0078C449.345 58.2461 449.169 57.6829 448.824 57.3184C448.486 56.9538 447.955 56.7715 447.232 56.7715C446.646 56.7715 446.132 56.9277 445.689 57.2402C445.247 57.5527 444.902 57.9629 444.654 58.4707V66H442.848V55.4336H444.557ZM458.121 64.7207C458.766 64.7207 459.329 64.5254 459.811 64.1348C460.292 63.7441 460.559 63.2559 460.611 62.6699H462.32C462.288 63.2754 462.079 63.8516 461.695 64.3984C461.311 64.9453 460.797 65.3815 460.152 65.707C459.514 66.0326 458.837 66.1953 458.121 66.1953C456.682 66.1953 455.536 65.7168 454.684 64.7598C453.837 63.7962 453.414 62.4811 453.414 60.8145V60.5117C453.414 59.4831 453.603 58.5684 453.98 57.7676C454.358 56.9668 454.898 56.3451 455.602 55.9023C456.311 55.4596 457.148 55.2383 458.111 55.2383C459.296 55.2383 460.279 55.5931 461.061 56.3027C461.848 57.0124 462.268 57.9336 462.32 59.0664H460.611C460.559 58.3828 460.299 57.8229 459.83 57.3867C459.368 56.944 458.795 56.7227 458.111 56.7227C457.193 56.7227 456.48 57.0547 455.973 57.7188C455.471 58.3763 455.221 59.3301 455.221 60.5801V60.9219C455.221 62.1393 455.471 63.0768 455.973 63.7344C456.474 64.3919 457.19 64.7207 458.121 64.7207ZM480.055 61.4883C479.879 62.9922 479.322 64.1543 478.385 64.9746C477.454 65.7884 476.214 66.1953 474.664 66.1953C472.984 66.1953 471.637 65.5931 470.621 64.3887C469.612 63.1842 469.107 61.5729 469.107 59.5547V58.1875C469.107 56.8659 469.342 55.7038 469.811 54.7012C470.286 53.6986 470.956 52.9303 471.822 52.3965C472.688 51.8561 473.691 51.5859 474.83 51.5859C476.34 51.5859 477.551 52.0091 478.463 52.8555C479.374 53.6953 479.905 54.8607 480.055 56.3516H478.17C478.007 55.2188 477.652 54.3984 477.105 53.8906C476.565 53.3828 475.807 53.1289 474.83 53.1289C473.632 53.1289 472.691 53.5716 472.008 54.457C471.331 55.3424 470.992 56.6022 470.992 58.2363V59.6133C470.992 61.1562 471.314 62.3835 471.959 63.2949C472.604 64.2064 473.505 64.6621 474.664 64.6621C475.706 64.6621 476.503 64.4277 477.057 63.959C477.617 63.4837 477.988 62.6602 478.17 61.4883H480.055ZM488.863 66C488.759 65.7917 488.674 65.4206 488.609 64.8867C487.77 65.7591 486.767 66.1953 485.602 66.1953C484.56 66.1953 483.704 65.9023 483.033 65.3164C482.369 64.724 482.037 63.9753 482.037 63.0703C482.037 61.9701 482.454 61.1172 483.287 60.5117C484.127 59.8997 485.305 59.5938 486.822 59.5938H488.58V58.7637C488.58 58.1322 488.391 57.6309 488.014 57.2598C487.636 56.8822 487.079 56.6934 486.344 56.6934C485.699 56.6934 485.159 56.8561 484.723 57.1816C484.286 57.5072 484.068 57.901 484.068 58.3633H482.252C482.252 57.8359 482.438 57.3281 482.809 56.8398C483.186 56.3451 483.694 55.9544 484.332 55.668C484.977 55.3815 485.683 55.2383 486.451 55.2383C487.669 55.2383 488.622 55.5443 489.312 56.1562C490.003 56.7617 490.361 57.5983 490.387 58.666V63.5293C490.387 64.4993 490.51 65.2708 490.758 65.8438V66H488.863ZM485.865 64.623C486.432 64.623 486.969 64.4766 487.477 64.1836C487.984 63.8906 488.352 63.5098 488.58 63.041V60.873H487.164C484.951 60.873 483.844 61.5208 483.844 62.8164C483.844 63.3828 484.033 63.8255 484.41 64.1445C484.788 64.4635 485.273 64.623 485.865 64.623ZM498.326 57.0547C498.053 57.0091 497.757 56.9863 497.438 56.9863C496.253 56.9863 495.449 57.4909 495.025 58.5V66H493.219V55.4336H494.977L495.006 56.6543C495.598 55.7103 496.438 55.2383 497.525 55.2383C497.877 55.2383 498.144 55.2839 498.326 55.375V57.0547ZM499.361 60.6289C499.361 59.0078 499.745 57.7057 500.514 56.7227C501.282 55.7331 502.288 55.2383 503.531 55.2383C504.768 55.2383 505.748 55.6615 506.471 56.5078V51H508.277V66H506.617L506.529 64.8672C505.807 65.7526 504.801 66.1953 503.512 66.1953C502.288 66.1953 501.288 65.694 500.514 64.6914C499.745 63.6888 499.361 62.3802 499.361 60.7656V60.6289ZM501.168 60.834C501.168 62.0319 501.415 62.9694 501.91 63.6465C502.405 64.3236 503.089 64.6621 503.961 64.6621C505.107 64.6621 505.943 64.1478 506.471 63.1191V58.2656C505.93 57.2695 505.1 56.7715 503.98 56.7715C503.095 56.7715 502.405 57.1133 501.91 57.7969C501.415 58.4805 501.168 59.4928 501.168 60.834Z" fill="white"/>
</svg>
